<mxfile host="app.diagrams.net" modified="2024-10-09T07:29:09.193Z" agent="Mozilla/5.0 (Macintosh; Intel Mac OS X 10_15_7) AppleWebKit/537.36 (KHTML, like Gecko) Chrome/129.0.0.0 Safari/537.36" version="24.4.4" etag="VpHz9HgeK3D011_uQ5Qs" type="github">
  <diagram name="ページ1" id="VxwxGq92BcaWStexI2Qv">
    <mxGraphModel>
      <root>
        <mxCell id="0" />
        <mxCell id="1" parent="0" />
      </root>
    </mxGraphModel>
  </diagram>
</mxfile>
